<?xml version="1.0" encoding="UTF-8"?>
<svg width="200mm" height="140mm" inkscape:version="1.1.1 (3bf5ae0d25, 2021-09-20)" sodipodi:docname="BrazilSharpVector.svg" version="1.1" viewBox="0 0 200 140" xmlns="http://www.w3.org/2000/svg" xmlns:cc="http://creativecommons.org/ns#" xmlns:dc="http://purl.org/dc/elements/1.1/" xmlns:inkscape="http://www.inkscape.org/namespaces/inkscape" xmlns:rdf="http://www.w3.org/1999/02/22-rdf-syntax-ns#" xmlns:sodipodi="http://sodipodi.sourceforge.net/DTD/sodipodi-0.dtd">
 <title>Brazil Sharp</title>
 <sodipodi:namedview bordercolor="#666666" borderopacity="1.0" inkscape:current-layer="layer1" inkscape:cx="329.08828" inkscape:cy="685.68244" inkscape:document-units="mm" inkscape:pagecheckerboard="0" inkscape:pageopacity="0.0" inkscape:pageshadow="2" inkscape:window-height="1012" inkscape:window-maximized="1" inkscape:window-width="1920" inkscape:window-x="0" inkscape:window-y="0" inkscape:zoom="0.50898197" pagecolor="#ffffff" showgrid="false"/>
 <defs>
  <style>.cls-1{fill:#05930c;}.cls-2,.cls-3{fill:#fff;}.cls-2{opacity:0.1;}</style>
 </defs>
 <g inkscape:groupmode="layer" inkscape:label="Camada 1">
  <g transform="matrix(.71312 0 0 .71312 30.147 -12.849)">
   <path d="m-42.275 18.017h280.46v196.32h-280.46z" fill="#009b3a" fill-rule="evenodd" stroke-width=".38952"/>
   <path d="m-18.436 116.18 116.39 74.321 116.39-74.321-116.39-74.321z" fill="#fedf00" stroke-width=".066776"/>
   <g transform="matrix(1.8064 0 0 1.8064 40.954 57.568)">
    <circle class="cls-1" cx="32" cy="32" r="32" fill="#000080"/>
    <path class="cls-2" d="m9.82 9a32 32 0 1 0 45.18 45.18z"/>
    <path class="cls-3" d="m52.29 23.57-0.81662 3.7973h-9.3912l-2.2457 10.779h10.085l-0.95953 3.7973h-9.8811l-3.1644 14.291h-4.5118l3.0828-14.291h-8.9829l-3.0215 14.291h-4.4098l3.0215-14.291h-9.4728l0.71454-3.7973h9.5137l2.1845-10.759h-9.9424l0.75538-3.7973h9.9424l3.0215-14.434h4.5527l-3.0215 14.434h9.0441l3.0828-14.434h4.4098l-3.0215 14.434zm-14.638 3.7973h-9.0645l-2.3478 10.779h9.1053z" stroke-width="2.0416"/>
   </g>
  </g>
 </g>
 <metadata>
  <rdf:RDF>
   <cc:Work rdf:about="">
    <dc:title>Brazil Sharp</dc:title>
    <dc:date>29/12/2021</dc:date>
    <dc:creator>
     <cc:Agent>
      <dc:title>Leonardo Nicolas</dc:title>
     </cc:Agent>
    </dc:creator>
    <dc:language>PT-BR</dc:language>
    <dc:subject>
     <rdf:Bag>
      <rdf:li>Brazil</rdf:li>
      <rdf:li>programming</rdf:li>
      <rdf:li>C#</rdf:li>
      <rdf:li>DotNET</rdf:li>
      <rdf:li>Mono</rdf:li>
      <rdf:li>Visual Basic</rdf:li>
     </rdf:Bag>
    </dc:subject>
    <dc:contributor>
     <cc:Agent>
      <dc:title>Leonardo Nicolas</dc:title>
     </cc:Agent>
    </dc:contributor>
    <cc:license rdf:resource="http://artlibre.org/licence/lal"/>
    <dc:source>Bandeira do Brasil e o símbolo de cerqília da Wikimedia.</dc:source>
   </cc:Work>
   <cc:License rdf:about="http://artlibre.org/licence/lal">
    <cc:permits rdf:resource="http://creativecommons.org/ns#Reproduction"/>
    <cc:permits rdf:resource="http://creativecommons.org/ns#Distribution"/>
    <cc:permits rdf:resource="http://creativecommons.org/ns#DerivativeWorks"/>
    <cc:requires rdf:resource="http://creativecommons.org/ns#ShareAlike"/>
    <cc:requires rdf:resource="http://creativecommons.org/ns#Notice"/>
    <cc:requires rdf:resource="http://creativecommons.org/ns#Attribution"/>
   </cc:License>
  </rdf:RDF>
 </metadata>
</svg>
